# xmcd CD database file
#
# Track frame offsets:
#	150
#	15168
#	31134
#	46041
#	61562
#	75884
#	88896
#	103441
#	116036
#	131584
#	146909
#	161175
#	176278
#	191101
#	205089
#	220693
#	234931
#
# Disc length: 3330 seconds
#
# Revision: 0
# Processed by: cddbd v1.5.1PL0 Copyright (c) Steve Scherf et al.
# Submitted via: CDex 1.51
#
DISCID=da0d0011
DTITLE=Glen Miller - Glenn MILLER
DYEAR=2000
DGENRE=Jazz
TTITLE0=Moonlight Serenade
TTITLE1=In The Mood
TTITLE2=Indian Summer
TTITLE3=Tuxedo Junction
TTITLE4=My Blues Heaven
TTITLE5=Bugle Call Rag
TTITLE6=Pennsylvania 6-5000
TTITLE7=Blueberry Hill
TTITLE8=Chattanooga Choo-Choo
TTITLE9=Take The A Train
TTITLE10=Elmer's Tune
TTITLE11=American Patrol
TTITLE12=(I've Got A Gal In) Kalamazoo
TTITLE13=My Reverie
TTITLE14=King Porter Stomp
TTITLE15=Slow Freight
TTITLE16=Moonlight Cocktail
EXTD=YEAR: 2000
EXTT0=
EXTT1=
EXTT2=
EXTT3=
EXTT4=
EXTT5=
EXTT6=
EXTT7=
EXTT8=
EXTT9=
EXTT10=
EXTT11=
EXTT12=
EXTT13=
EXTT14=
EXTT15=
EXTT16=
PLAYORDER=
